<?xml version="1.0" encoding="UTF-8"?>
<svg id="B_W_1" data-name="B&amp;amp;W 1" xmlns="http://www.w3.org/2000/svg" viewBox="0 0 1920 1080">
  <defs>
    <style>
      .cls-1 {
        opacity: .5;
      }

      .cls-1, .cls-2, .cls-3, .cls-4 {
        fill: #fff;
      }

      .cls-2 {
        opacity: .33;
      }

      .cls-3 {
        opacity: .67;
      }
    </style>
  </defs>
  <path class="cls-4" d="M766.52,82.2h-146.43l-73.21,126.81,73.21,126.81h146.43l73.21-126.81-73.21-126.81ZM720.36,248.6v-2.84c2.84,0,4.26-.95,4.26-2.84v-52.37h-.33l-31.69,58.05h-.47l-31.09-58.19h-.32s.01,52.53.01,52.53c0,1.89,1.47,2.84,4.42,2.84v2.84s-23.66,0-23.66,0v-2.84c.84,0,1.58-.24,2.21-.71.63-.47.95-1.18.95-2.13l-.02-71.93c0-.95-.32-1.6-.95-1.97-.63-.37-1.37-.55-2.21-.55v-2.84s29.5,0,29.5,0v2.84c-.53,0-1.08.16-1.66.47-.58.32-.87.79-.87,1.42,0,.53.21,1.21.63,2.05.42.84.89,1.74,1.42,2.68l22.57,41,22.7-40.54c.73-1.37,1.29-2.44,1.66-3.23.37-.79.55-1.5.55-2.13,0-1.16-.69-1.74-2.05-1.74v-2.84s29.18,0,29.18,0v2.84c-.84,0-1.58.19-2.21.55-.63.37-.95,1.02-.95,1.97l.02,71.93c0,.95.32,1.66.95,2.13.63.47,1.37.71,2.21.71v2.84s-24.76,0-24.76,0Z"/>
  <path class="cls-4" d="M1060.79,82.2h-146.43l-73.21,126.81,73.21,126.81h146.43l73.21-126.81-73.21-126.81ZM1031.74,237.25c-.32,0-.61-.02-.87-.08-.26-.05-.55-.08-.87-.08-.63,0-2.13.63-4.5,1.89-2.37,1.26-5.36,2.68-8.99,4.26-3.63,1.58-7.76,2.94-12.38,4.1-4.63,1.16-9.46,1.73-14.51,1.73-6.63,0-12.99-.84-19.09-2.52-6.1-1.68-11.49-4.28-16.17-7.81-4.68-3.52-8.39-7.91-11.12-13.17-2.74-5.26-4.1-11.41-4.1-18.45s1.37-13.06,4.1-18.38c2.73-5.31,6.44-9.75,11.12-13.33,4.68-3.57,10.07-6.26,16.17-8.04,6.1-1.79,12.46-2.68,19.09-2.68,5.36,0,10.23.42,14.59,1.26,4.36.84,8.17,1.73,11.44,2.68,3.26.95,5.84,1.84,7.73,2.68,1.89.84,3.05,1.26,3.47,1.26.52,0,.97-.26,1.34-.79.37-.53.66-.95.87-1.26l2.37,1.89-12.3,19.09-1.58-1.1c0-.32-.03-.63-.08-.95-.05-.32-.13-.68-.24-1.1-.21-1.16-1.26-2.34-3.15-3.55-1.89-1.21-4.23-2.29-7.02-3.23-2.79-.95-5.73-1.73-8.83-2.37-3.1-.63-5.97-.95-8.6-.95-4.42,0-8.65.63-12.7,1.89-4.05,1.26-7.57,3.1-10.57,5.52-3,2.42-5.39,5.39-7.18,8.91-1.79,3.53-2.68,7.55-2.68,12.07s.89,8.55,2.68,12.07c1.79,3.52,4.18,6.49,7.18,8.91,3,2.42,6.52,4.26,10.57,5.52,4.05,1.26,8.28,1.89,12.7,1.89,3.36,0,6.89-.39,10.57-1.18,3.68-.79,7.04-1.79,10.09-3,3.05-1.21,5.6-2.58,7.65-4.1,2.05-1.52,3.08-2.97,3.08-4.34,0-.73-.21-1.36-.63-1.89l2.21-1.26,10.41,16.72-1.26,1.26Z"/>
  <path class="cls-4" d="M1355.32,82.2h-146.43l-73.22,126.81,73.22,126.81h146.43l73.22-126.81-73.22-126.81ZM1314.52,168.48c-1.79,0-3.31.42-4.57,1.26-1.26.84-1.89,2-1.89,3.47v52.05c0,4.1-.87,7.68-2.6,10.73-1.73,3.05-4.18,5.57-7.33,7.57-3.15,2-6.89,3.42-11.2,4.26-4.31.84-9.1,1.26-14.35,1.26-3.26,0-6.26-.21-8.99-.63-2.74-.42-5.18-.92-7.33-1.5-2.16-.58-4.05-1.13-5.68-1.66-1.63-.53-2.97-.79-4.02-.79-1.16,0-2.1.63-2.84,1.89l-2.37-1.58,8.36-19.24,2.52.95c.32,1.68,1.13,3.15,2.44,4.42,1.31,1.26,2.92,2.34,4.81,3.23,1.89.89,3.94,1.58,6.15,2.05,2.21.47,4.31.71,6.31.71,6.31,0,10.91-.92,13.8-2.76,2.89-1.84,4.34-5.28,4.34-10.33v-50.63c0-1.47-.63-2.63-1.89-3.47-1.26-.84-2.47-1.26-3.63-1.26v-2.84h29.97v2.84Z"/>
  <path class="cls-4" d="M766.51,338.14h-146.43l-73.21,126.81,73.21,126.81h146.43l73.21-126.81-73.21-126.81ZM762.85,424.41c-1.16,0-2.03.63-2.6,1.89-.58,1.26-1.24,2.84-1.97,4.73l-22.71,60.25c-.63,1.68-1.18,3.15-1.66,4.42-.47,1.26-.71,2.31-.71,3.16,0,.74.26,1.39.79,1.97.53.58,1.26.87,2.21.87v2.84h-24.92v-2.84c.63-.21,1.29-.52,1.97-.95.68-.42,1.03-1,1.03-1.73,0-.84-.18-1.79-.55-2.84-.37-1.05-.97-2.52-1.81-4.42l-18.14-46.53h-.31l-17.19,45.58c-1.58,4.1-2.37,6.68-2.37,7.73,0,1.68.68,2.74,2.05,3.15v2.84h-24.45v-2.84c.63,0,1.26-.16,1.89-.47s.95-.84.95-1.58c0-.84-.18-1.73-.55-2.68-.37-.95-.76-1.94-1.18-3l-25.24-65.14c-.42-1.16-.87-2.13-1.34-2.92-.47-.79-1.24-1.29-2.29-1.5v-2.84h24.45v2.84c-1.58,0-2.37,1-2.37,3,0,.53.08,1.16.24,1.89.16.74.55,1.95,1.18,3.63l16.88,43.85h.32l16.72-44.48c.52-1.36.87-2.39,1.03-3.07.16-.68.24-1.29.24-1.81,0-2-.68-3-2.05-3v-2.84h26.97v2.84c-.74,0-1.26.26-1.58.79-.32.53-.47,1.1-.47,1.73,0,1.05.53,2.84,1.58,5.36l16.88,44.48h.32l17.03-45.43c.73-1.58,1.1-3,1.1-4.26,0-.63-.26-1.24-.79-1.81-.53-.58-1.16-.87-1.89-.87v-2.84h23.34v2.84Z"/>
  <path class="cls-4" d="M1060.92,338.14h-146.43l-73.21,126.81,73.21,126.81h146.43l73.21-126.81-73.21-126.81ZM1030.37,507.54h-2.84c0-1.58-.5-2.47-1.5-2.68-1-.21-2.29-.32-3.86-.32h-73.5v-2.84c.73,0,1.39-.24,1.97-.71.58-.47.87-1.18.87-2.13v-71.61c0-.95-.29-1.66-.87-2.13-.58-.47-1.24-.71-1.97-.71v-2.84h71.93c2.21,0,3.76-.34,4.65-1.03.89-.68,1.34-1.6,1.34-2.76h2.84v20.82h-2.84c0-1.16-.45-2.02-1.34-2.6-.89-.58-2.44-.87-4.65-.87h-51.1v19.56h30.92c2.1,0,3.73-.29,4.89-.87,1.16-.58,1.73-2.07,1.73-4.5h2.84v24.61h-2.84c0-2.42-.58-3.97-1.73-4.65-1.16-.68-2.79-1.02-4.89-1.02h-30.92v21.77h52.68c1.58,0,2.86-.37,3.86-1.1,1-.73,1.5-1.74,1.5-3h2.84v21.61Z"/>
  <g>
    <path class="cls-4" d="M1302.61,452.25c3.1-1.21,4.65-3.76,4.65-7.65s-1.55-6.44-4.65-7.65c-3.1-1.21-7.02-1.81-11.75-1.81h-30.13v18.93h30.13c4.73,0,8.65-.6,11.75-1.81Z"/>
    <path class="cls-4" d="M1305.14,470.71c-2.89-2.05-7.65-3.08-14.27-3.08h-30.13v22.4h30.13c6.62,0,11.38-1.03,14.27-3.08,2.89-2.05,4.34-4.76,4.34-8.12s-1.45-6.07-4.34-8.12Z"/>
    <path class="cls-4" d="M1355.4,338.14h-146.43l-73.21,126.81,73.21,126.81h146.43l73.21-126.81-73.21-126.81ZM1325.41,491.21c-1.37,2.68-3.39,5.02-6.07,7.02-2.68,2-5.97,3.55-9.86,4.65-3.89,1.1-8.31,1.66-13.25,1.66h-57.89v-2.84c2.94,0,4.42-.95,4.42-2.84v-71.61c0-1.89-1.47-2.84-4.42-2.84v-2.84h49.37c4.84,0,9.52.39,14.04,1.18,4.52.79,8.52,2.05,11.99,3.79,3.47,1.74,6.26,4,8.36,6.78,2.1,2.79,3.15,6.23,3.15,10.33,0,4.94-1.53,8.75-4.57,11.44-3.05,2.68-6.68,4.76-10.88,6.23v.32c4.94,1.47,9.12,3.81,12.54,7.02,3.42,3.21,5.13,7.81,5.13,13.8,0,3.15-.68,6.07-2.05,8.75Z"/>
  </g>
  <path class="cls-4" d="M1061.08,593.65h-146.43l-73.21,126.81,73.21,126.81h146.43l73.21-126.81-73.21-126.81ZM1030.53,763.05h-2.84c0-1.58-.5-2.47-1.5-2.68-1-.21-2.29-.32-3.86-.32h-73.5v-2.84c.73,0,1.39-.24,1.97-.71.58-.47.87-1.18.87-2.13v-71.61c0-.95-.29-1.66-.87-2.13-.58-.47-1.24-.71-1.97-.71v-2.84h71.93c2.21,0,3.76-.34,4.65-1.03.89-.68,1.34-1.6,1.34-2.76h2.84v20.82h-2.84c0-1.16-.45-2.02-1.34-2.6-.89-.58-2.44-.87-4.65-.87h-51.1v19.56h30.92c2.1,0,3.73-.29,4.89-.87,1.16-.58,1.73-2.07,1.73-4.5h2.84v24.61h-2.84c0-2.42-.58-3.97-1.73-4.65-1.16-.68-2.79-1.02-4.89-1.02h-30.92v21.77h52.68c1.58,0,2.86-.37,3.86-1.1,1-.73,1.5-1.74,1.5-3h2.84v21.61Z"/>
  <path class="cls-4" d="M1355.56,593.65h-146.43l-73.21,126.81,73.21,126.81h146.43l73.21-126.81-73.21-126.81ZM1331.32,679.93c-2.1,0-3.63.76-4.57,2.29-.95,1.53-1.63,2.76-2.05,3.71l-27.92,61.36c-.95,2.1-1.73,3.79-2.37,5.05-.63,1.26-.95,2.16-.95,2.68s.13.95.39,1.26c.26.32.6.63,1.03.95v2.84h-24.13v-2.84c.95-.42,1.42-1.16,1.42-2.21,0-.53-.39-1.6-1.18-3.23-.79-1.63-1.76-3.65-2.92-6.07l-28.39-61.67c-.53-1.16-1.26-2-2.21-2.52-.95-.53-2.31-1.05-4.1-1.58v-2.84h28.23v2.84c-.74,0-1.45.18-2.13.55-.69.37-1.03,1.08-1.03,2.13,0,1.16.45,2.63,1.34,4.42.89,1.79,1.97,4,3.23,6.62l20.19,43.38,19.72-42.75c1.26-2.73,2.44-5.18,3.55-7.33,1.1-2.15,1.66-3.65,1.66-4.5,0-1.68-1.47-2.52-4.42-2.52v-2.84h27.6v2.84Z"/>
  <polygon class="cls-2" points="620.05 338.58 546.7 214.04 547.77 276.34 620.05 399.25 620.05 338.58"/>
  <polygon class="cls-3" points="766.33 338.55 839.29 213.96 838.23 276.28 766.33 399.25 766.33 338.55"/>
  <polygon class="cls-1" points="1355.31 849.34 1209.03 849.34 1209.03 909.32 1355.04 909.32 1355.31 909.1 1355.31 849.34"/>
  <polygon class="cls-2" points="1206.93 849.34 1135.69 726.21 1136.72 787.8 1206.93 909.32 1206.93 849.34"/>
  <polygon class="cls-3" points="1357.03 849.26 1428.27 726.13 1427.24 787.72 1357.03 909.24 1357.03 849.26"/>
  <polygon class="cls-1" points="766.29 849.06 620.01 849.06 620.01 909.05 766.01 909.05 766.29 908.82 766.29 849.06"/>
  <polygon class="cls-2" points="617.91 849.06 546.67 725.94 547.7 787.53 617.91 909.05 617.91 849.06"/>
  <polygon class="cls-3" points="768.01 848.98 839.25 725.86 838.22 787.45 768.01 908.97 768.01 848.98"/>
  <polygon class="cls-1" points="1060.95 849.06 914.67 849.06 914.67 909.05 1060.68 909.05 1060.95 908.82 1060.95 849.06"/>
  <polygon class="cls-2" points="912.57 849.06 841.33 725.94 842.36 787.53 912.57 909.05 912.57 849.06"/>
  <polygon class="cls-3" points="1062.68 848.98 1133.91 725.86 1132.88 787.45 1062.68 908.97 1062.68 848.98"/>
  <polygon class="cls-2" points="619.81 594.2 546.46 469.66 547.52 531.96 619.81 654.87 619.81 594.2"/>
  <polygon class="cls-2" points="914.08 338.49 840.73 213.95 841.8 276.25 914.08 399.17 914.08 338.49"/>
  <polygon class="cls-2" points="1208.85 338.8 1135.51 214.26 1136.57 276.56 1208.85 399.48 1208.85 338.8"/>
  <polygon class="cls-2" points="1208.85 595.58 1135.51 471.04 1136.57 533.33 1208.85 656.25 1208.85 595.58"/>
  <polygon class="cls-2" points="914.19 595.58 840.84 471.04 841.91 533.33 914.19 656.25 914.19 595.58"/>
  <polygon class="cls-3" points="1061.21 338.85 1134.17 214.26 1133.12 276.58 1061.21 399.55 1061.21 338.85"/>
  <polygon class="cls-3" points="766.37 594.35 839.33 469.76 838.28 532.08 766.37 655.05 766.37 594.35"/>
  <polygon class="cls-3" points="1060.88 595.72 1133.85 471.12 1132.79 533.45 1060.88 656.42 1060.88 595.72"/>
  <polygon class="cls-3" points="1355.72 338.63 1428.69 214.04 1427.63 276.36 1355.72 399.33 1355.72 338.63"/>
  <polygon class="cls-3" points="1355.72 594.36 1428.69 469.76 1427.63 532.09 1355.72 655.06 1355.72 594.36"/>
  <g>
    <path class="cls-4" d="M715.96,695.84c-2.42-2.15-5.47-3.65-9.15-4.5-3.68-.84-7.99-1.26-12.93-1.26h-24.45v55.84h24.45c4.94,0,9.25-.42,12.93-1.26,3.68-.84,6.73-2.34,9.15-4.5,2.42-2.15,4.23-5.02,5.44-8.6,1.21-3.57,1.81-8.1,1.81-13.56s-.61-9.99-1.81-13.56c-1.21-3.57-3.02-6.44-5.44-8.6Z"/>
    <path class="cls-4" d="M766.3,593.09h-146.43l-73.21,126.81,73.21,126.81h146.43l73.21-126.81-73.21-126.81ZM738.04,736.38c-2.1,5.21-5,9.52-8.67,12.93-3.68,3.42-8.02,5.97-13.01,7.65-5,1.68-10.39,2.52-16.17,2.52h-52.37v-2.84c2.42,0,3.63-.95,3.63-2.84v-71.61c0-1.89-1.21-2.84-3.63-2.84v-2.84h52.37c5.78,0,11.17.84,16.17,2.52,4.99,1.68,9.33,4.23,13.01,7.65,3.68,3.42,6.57,7.73,8.67,12.93,2.1,5.2,3.16,11.33,3.16,18.38s-1.05,13.17-3.16,18.38Z"/>
  </g>
</svg>