<?xml version="1.0" encoding="UTF-8"?>
<svg id="Alt_2" data-name="Alt 2" xmlns="http://www.w3.org/2000/svg" viewBox="0 0 1920 1080">
  <defs>
    <style>
      .cls-1 {
        fill: #4e9ccc;
      }

      .cls-2 {
        fill: #2a9ee6;
      }

      .cls-3 {
        fill: #25465b;
      }

      .cls-4 {
        fill: #4481a7;
      }

      .cls-5 {
        fill: #e62a66;
      }
    </style>
  </defs>
  <rect class="cls-5" x="571.9" y="691.52" width="141.55" height="114.59"/>
  <rect class="cls-5" x="904.03" y="685.96" width="141.55" height="114.59"/>
  <rect class="cls-5" x="1216.1" y="679.28" width="141.55" height="114.59"/>
  <rect class="cls-5" x="1204.96" y="425.63" width="141.55" height="114.59"/>
  <rect class="cls-5" x="891.77" y="414.5" width="141.55" height="114.59"/>
  <rect class="cls-5" x="568.56" y="420.07" width="170.52" height="123.49"/>
  <rect class="cls-5" x="1212.76" y="146.39" width="141.55" height="114.59"/>
  <rect class="cls-5" x="902.92" y="141.94" width="141.55" height="114.59"/>
  <rect class="cls-5" x="586.39" y="146.39" width="141.55" height="114.59"/>
  <polygon class="cls-1" points="582.16 342.85 504.49 211.19 505.61 277.05 582.16 406.99 582.16 342.85"/>
  <polygon class="cls-3" points="737.08 342.82 814.36 211.11 813.24 276.99 737.08 406.99 737.08 342.82"/>
  <polygon class="cls-4" points="1360.86 882.81 1205.94 882.81 1205.94 946.22 1360.57 946.22 1360.86 945.98 1360.86 882.81"/>
  <polygon class="cls-1" points="1203.71 882.81 1128.27 752.64 1129.36 817.75 1203.71 946.22 1203.71 882.81"/>
  <polygon class="cls-3" points="1362.69 882.72 1438.14 752.56 1437.04 817.67 1362.69 946.14 1362.69 882.72"/>
  <polygon class="cls-4" points="737.05 882.52 582.13 882.52 582.13 945.93 736.75 945.93 737.05 945.69 737.05 882.52"/>
  <polygon class="cls-1" points="579.9 882.52 504.45 752.35 505.54 817.46 579.9 945.93 579.9 882.52"/>
  <polygon class="cls-3" points="738.87 882.43 814.32 752.27 813.23 817.38 738.87 945.84 738.87 882.43"/>
  <polygon class="cls-4" points="1049.12 882.52 894.2 882.52 894.2 945.93 1048.82 945.93 1049.12 945.69 1049.12 882.52"/>
  <polygon class="cls-1" points="891.97 882.52 816.52 752.35 817.61 817.46 891.97 945.93 891.97 882.52"/>
  <polygon class="cls-3" points="1050.94 882.43 1126.39 752.27 1125.29 817.38 1050.94 945.84 1050.94 882.43"/>
  <polygon class="cls-1" points="581.91 613.08 504.23 481.42 505.36 547.28 581.91 677.23 581.91 613.08"/>
  <polygon class="cls-1" points="893.56 342.76 815.89 211.1 817.01 276.96 893.56 406.9 893.56 342.76"/>
  <polygon class="cls-1" points="1205.75 343.09 1128.07 211.43 1129.2 277.28 1205.75 407.23 1205.75 343.09"/>
  <polygon class="cls-1" points="1205.75 614.54 1128.07 482.88 1129.2 548.74 1205.75 678.68 1205.75 614.54"/>
  <polygon class="cls-1" points="893.68 614.54 816 482.88 817.13 548.74 893.68 678.68 893.68 614.54"/>
  <polygon class="cls-3" points="1049.39 343.14 1126.66 211.42 1125.54 277.31 1049.39 407.31 1049.39 343.14"/>
  <polygon class="cls-3" points="737.13 613.25 814.4 481.53 813.29 547.42 737.13 677.42 737.13 613.25"/>
  <polygon class="cls-3" points="1049.04 614.69 1126.31 482.97 1125.19 548.86 1049.04 678.86 1049.04 614.69"/>
  <polygon class="cls-3" points="1361.3 342.91 1438.57 211.19 1437.45 277.08 1361.3 407.08 1361.3 342.91"/>
  <polygon class="cls-3" points="1361.3 613.25 1438.57 481.53 1437.45 547.42 1361.3 677.42 1361.3 613.25"/>
  <path class="cls-2" d="M737.29,71.82h-155.08l-77.54,134.06,77.54,134.06h155.08l77.54-134.06-77.54-134.06ZM688.41,247.73v-3c3.01,0,4.51-1,4.51-3l-.02-55.36h-.33l-33.56,61.37h-.5l-32.93-61.52h-.33s.02,55.53.02,55.53c0,2,1.56,3,4.68,3v3s-25.06,0-25.06,0v-3c.89,0,1.67-.25,2.34-.75.67-.5,1-1.25,1-2.25l-.02-76.04c0-1-.33-1.69-1-2.08-.67-.39-1.45-.58-2.34-.58v-3s31.24,0,31.24,0v3c-.56,0-1.14.17-1.75.5-.61.33-.92.83-.92,1.5,0,.56.22,1.28.67,2.17.44.89.95,1.84,1.5,2.84l23.9,43.35,24.04-42.86c.78-1.44,1.36-2.58,1.75-3.42.39-.83.58-1.58.58-2.25,0-1.22-.73-1.84-2.17-1.84v-3s30.9,0,30.9,0v3c-.89,0-1.67.2-2.34.59-.67.39-1,1.08-1,2.08l.02,76.04c0,1,.33,1.75,1,2.25.67.5,1.45.75,2.34.75v3s-26.23,0-26.23,0Z"/>
  <path class="cls-2" d="M1048.95,71.82h-155.08l-77.54,134.06,77.54,134.06h155.08l77.54-134.06-77.54-134.06ZM1018.18,235.73c-.33,0-.64-.02-.92-.08-.28-.06-.58-.08-.92-.08-.67,0-2.26.67-4.76,2-2.51,1.33-5.68,2.83-9.52,4.5-3.84,1.67-8.21,3.11-13.11,4.33-4.9,1.22-10.02,1.83-15.37,1.83-7.02,0-13.76-.89-20.21-2.67-6.46-1.78-12.17-4.53-17.12-8.25-4.96-3.72-8.88-8.36-11.78-13.92-2.9-5.56-4.34-12.06-4.34-19.51s1.45-13.81,4.34-19.43c2.89-5.61,6.82-10.31,11.78-14.09,4.95-3.78,10.66-6.61,17.12-8.5,6.46-1.89,13.2-2.83,20.21-2.83,5.68,0,10.83.45,15.45,1.33,4.62.89,8.66,1.83,12.11,2.83,3.45,1,6.18,1.95,8.19,2.83,2,.89,3.23,1.33,3.68,1.33.56,0,1.03-.28,1.42-.83.39-.56.69-1,.92-1.33l2.51,2-13.03,20.18-1.67-1.17c0-.33-.03-.67-.08-1-.06-.33-.14-.72-.25-1.17-.22-1.22-1.34-2.47-3.34-3.75-2-1.28-4.48-2.42-7.43-3.42-2.95-1-6.07-1.83-9.35-2.5-3.29-.67-6.32-1-9.1-1-4.68,0-9.16.67-13.45,2-4.29,1.33-8.02,3.28-11.19,5.84-3.17,2.56-5.71,5.7-7.6,9.42-1.9,3.73-2.84,7.98-2.84,12.76s.94,9.03,2.84,12.76c1.89,3.73,4.43,6.87,7.6,9.42,3.17,2.56,6.9,4.5,11.19,5.84,4.29,1.33,8.77,2,13.45,2,3.56,0,7.29-.42,11.19-1.25,3.9-.83,7.46-1.89,10.69-3.17,3.23-1.28,5.93-2.72,8.1-4.34,2.17-1.61,3.26-3.14,3.26-4.59,0-.78-.22-1.44-.67-2l2.34-1.33,11.03,17.68-1.34,1.33Z"/>
  <path class="cls-2" d="M1360.87,71.82h-155.08l-77.54,134.06,77.54,134.06h155.08l77.54-134.06-77.54-134.06ZM1317.66,163.03c-1.89,0-3.51.45-4.84,1.33-1.34.89-2,2.11-2,3.67v55.03c0,4.34-.92,8.12-2.76,11.34-1.84,3.23-4.43,5.89-7.77,8-3.34,2.11-7.3,3.61-11.86,4.5-4.57.89-9.63,1.33-15.2,1.33-3.45,0-6.63-.22-9.52-.67-2.9-.44-5.49-.97-7.77-1.59-2.28-.61-4.29-1.19-6.01-1.75-1.73-.56-3.15-.83-4.26-.83-1.23,0-2.23.67-3.01,2l-2.51-1.67,8.85-20.34,2.67,1c.33,1.78,1.2,3.33,2.59,4.67,1.39,1.33,3.09,2.48,5.09,3.42,2,.95,4.18,1.67,6.51,2.17,2.34.5,4.57.75,6.68.75,6.68,0,11.55-.97,14.62-2.92,3.06-1.94,4.59-5.59,4.59-10.92v-53.53c0-1.56-.67-2.78-2-3.67-1.34-.89-2.62-1.33-3.84-1.33v-3h31.74v3Z"/>
  <path class="cls-2" d="M737.28,342.39h-155.08l-77.54,134.06,77.54,134.06h155.08l77.54-134.06-77.54-134.06ZM733.41,433.59c-1.23,0-2.15.67-2.76,2-.61,1.33-1.31,3-2.09,5l-24.06,63.7c-.67,1.78-1.25,3.33-1.75,4.67-.5,1.33-.75,2.45-.75,3.34,0,.78.28,1.47.84,2.08.56.61,1.34.92,2.34.92v3h-26.39v-3c.67-.22,1.36-.55,2.09-1,.72-.44,1.09-1.05,1.09-1.83,0-.89-.2-1.89-.58-3-.39-1.11-1.03-2.67-1.92-4.67l-19.21-49.19h-.33l-18.21,48.19c-1.67,4.34-2.51,7.06-2.51,8.17,0,1.78.72,2.89,2.17,3.33v3h-25.89v-3c.67,0,1.34-.17,2-.5s1-.89,1-1.67c0-.89-.2-1.83-.59-2.83-.39-1-.81-2.06-1.25-3.17l-26.73-68.87c-.45-1.22-.92-2.25-1.42-3.08-.5-.83-1.31-1.36-2.42-1.59v-3h25.89v3c-1.67,0-2.51,1.06-2.51,3.17,0,.56.08,1.22.25,2,.17.78.59,2.06,1.25,3.84l17.87,46.36h.33l17.71-47.02c.56-1.44.92-2.53,1.09-3.25.17-.72.25-1.36.25-1.92,0-2.11-.73-3.17-2.17-3.17v-3h28.57v3c-.78,0-1.34.28-1.67.83-.33.56-.5,1.17-.5,1.83,0,1.11.56,3,1.67,5.67l17.87,47.02h.33l18.04-48.02c.78-1.67,1.17-3.17,1.17-4.5,0-.67-.28-1.31-.84-1.92-.56-.61-1.23-.92-2-.92v-3h24.72v3Z"/>
  <path class="cls-2" d="M1049.08,342.39h-155.08l-77.54,134.06,77.54,134.06h155.08l77.54-134.06-77.54-134.06ZM1016.73,521.47h-3.01c0-1.67-.53-2.61-1.59-2.83-1.06-.22-2.42-.33-4.09-.33h-77.84v-3c.78,0,1.47-.25,2.09-.75.61-.5.92-1.25.92-2.25v-75.7c0-1-.31-1.75-.92-2.25-.61-.5-1.31-.75-2.09-.75v-3h76.17c2.34,0,3.98-.36,4.93-1.08.94-.72,1.42-1.69,1.42-2.92h3.01v22.01h-3.01c0-1.22-.48-2.14-1.42-2.75-.95-.61-2.59-.92-4.93-.92h-54.12v20.68h32.74c2.23,0,3.95-.31,5.18-.92,1.22-.61,1.84-2.19,1.84-4.75h3.01v26.01h-3.01c0-2.56-.61-4.19-1.84-4.92-1.23-.72-2.95-1.08-5.18-1.08h-32.74v23.01h55.79c1.67,0,3.03-.39,4.09-1.17,1.06-.78,1.59-1.84,1.59-3.17h3.01v22.84Z"/>
  <g>
    <path class="cls-2" d="M1305.05,463.02c3.28-1.28,4.93-3.97,4.93-8.09s-1.64-6.81-4.93-8.09c-3.29-1.28-7.43-1.92-12.44-1.92h-31.91v20.01h31.91c5.01,0,9.16-.64,12.44-1.92Z"/>
    <path class="cls-2" d="M1307.73,482.53c-3.06-2.17-8.1-3.25-15.12-3.25h-31.91v23.68h31.91c7.02,0,12.05-1.08,15.12-3.25,3.06-2.17,4.59-5.03,4.59-8.59s-1.53-6.42-4.59-8.59Z"/>
    <path class="cls-2" d="M1360.96,342.39h-155.08l-77.54,134.06,77.54,134.06h155.08l77.54-134.06-77.54-134.06ZM1329.19,504.21c-1.45,2.83-3.59,5.31-6.43,7.42-2.84,2.11-6.32,3.75-10.44,4.92-4.12,1.17-8.8,1.75-14.03,1.75h-61.31v-3c3.12,0,4.68-1,4.68-3v-75.7c0-2-1.56-3-4.68-3v-3h52.29c5.12,0,10.08.42,14.87,1.25,4.79.83,9.02,2.17,12.7,4,3.68,1.84,6.62,4.23,8.85,7.17,2.23,2.95,3.34,6.59,3.34,10.92,0,5.23-1.62,9.25-4.84,12.09-3.23,2.83-7.07,5.03-11.53,6.59v.33c5.23,1.56,9.66,4.03,13.28,7.42,3.62,3.39,5.43,8.25,5.43,14.59,0,3.33-.73,6.42-2.17,9.25Z"/>
  </g>
  <path class="cls-2" d="M1049.25,612.51h-155.08l-77.54,134.06,77.54,134.06h155.08l77.54-134.06-77.54-134.06ZM1016.9,791.59h-3.01c0-1.67-.53-2.61-1.59-2.83-1.06-.22-2.42-.33-4.09-.33h-77.84v-3c.78,0,1.47-.25,2.09-.75.61-.5.92-1.25.92-2.25v-75.7c0-1-.31-1.75-.92-2.25-.61-.5-1.31-.75-2.09-.75v-3h76.17c2.34,0,3.98-.36,4.93-1.08.94-.72,1.42-1.69,1.42-2.92h3.01v22.01h-3.01c0-1.22-.48-2.14-1.42-2.75-.95-.61-2.59-.92-4.93-.92h-54.12v20.68h32.74c2.23,0,3.95-.31,5.18-.92,1.22-.61,1.84-2.19,1.84-4.75h3.01v26.01h-3.01c0-2.56-.61-4.19-1.84-4.92-1.23-.72-2.95-1.08-5.18-1.08h-32.74v23.01h55.79c1.67,0,3.03-.39,4.09-1.17,1.06-.78,1.59-1.84,1.59-3.17h3.01v22.84Z"/>
  <path class="cls-2" d="M1361.13,612.51h-155.08l-77.54,134.06,77.54,134.06h155.08l77.54-134.06-77.54-134.06ZM1335.46,703.71c-2.23,0-3.84.81-4.84,2.42-1,1.61-1.73,2.92-2.17,3.92l-29.57,64.86c-1,2.23-1.84,4-2.51,5.34-.67,1.33-1,2.28-1,2.83s.14,1,.42,1.33c.28.33.64.67,1.09,1v3h-25.56v-3c1-.44,1.5-1.22,1.5-2.33,0-.56-.42-1.69-1.25-3.42-.84-1.72-1.87-3.86-3.09-6.42l-30.07-65.2c-.56-1.22-1.34-2.11-2.34-2.67-1-.56-2.45-1.11-4.34-1.67v-3h29.9v3c-.78,0-1.53.2-2.26.58-.73.39-1.09,1.14-1.09,2.25,0,1.22.47,2.78,1.42,4.67.94,1.89,2.09,4.23,3.42,7l21.38,45.86,20.88-45.19c1.34-2.89,2.59-5.47,3.76-7.75,1.17-2.28,1.75-3.86,1.75-4.75,0-1.78-1.56-2.67-4.68-2.67v-3h29.23v3Z"/>
  <g>
    <path class="cls-2" d="M683.74,720.54c-2.56-2.28-5.79-3.86-9.69-4.75-3.9-.89-8.47-1.33-13.7-1.33h-25.89v59.03h25.89c5.23,0,9.8-.44,13.7-1.33,3.9-.89,7.13-2.47,9.69-4.75,2.56-2.28,4.48-5.31,5.76-9.09,1.28-3.78,1.92-8.56,1.92-14.34s-.64-10.56-1.92-14.34c-1.28-3.78-3.2-6.81-5.76-9.09Z"/>
    <path class="cls-2" d="M737.06,611.91h-155.08l-77.54,134.06,77.54,134.06h155.08l77.54-134.06-77.54-134.06ZM707.13,763.39c-2.23,5.5-5.29,10.06-9.19,13.67-3.9,3.61-8.49,6.31-13.78,8.09-5.29,1.78-11,2.67-17.12,2.67h-55.46v-3c2.56,0,3.84-1,3.84-3v-75.7c0-2-1.28-3-3.84-3v-3h55.46c6.12,0,11.83.89,17.12,2.67,5.29,1.78,9.88,4.48,13.78,8.09,3.9,3.61,6.96,8.17,9.19,13.67,2.23,5.5,3.34,11.98,3.34,19.43s-1.11,13.92-3.34,19.43Z"/>
  </g>
</svg>