<?xml version="1.0" encoding="UTF-8"?>
<svg id="Alt_1" data-name="Alt 1" xmlns="http://www.w3.org/2000/svg" viewBox="0 0 1920 1080">
  <defs>
    <style>
      .cls-1 {
        fill: #4e9ccc;
      }

      .cls-2 {
        fill: #25465b;
      }

      .cls-3 {
        fill: #4481a7;
      }

      .cls-4 {
        fill: #e62a66;
      }
    </style>
  </defs>
  <rect x="581.78" y="687.62" width="143.36" height="116.05"/>
  <rect x="918.16" y="681.99" width="143.36" height="116.05"/>
  <rect x="1234.22" y="675.23" width="143.36" height="116.05"/>
  <rect x="1222.93" y="418.33" width="143.36" height="116.05"/>
  <rect x="905.74" y="407.06" width="143.36" height="116.05"/>
  <rect x="578.4" y="412.7" width="172.7" height="125.07"/>
  <rect x="1230.83" y="135.52" width="143.36" height="116.05"/>
  <rect x="917.03" y="131.01" width="143.36" height="116.05"/>
  <rect x="596.46" y="135.52" width="143.36" height="116.05"/>
  <polygon class="cls-1" points="592.18 334.49 513.51 201.15 514.65 267.85 592.18 399.46 592.18 334.49"/>
  <polygon class="cls-2" points="749.08 334.47 827.34 201.06 826.2 267.79 749.08 399.46 749.08 334.47"/>
  <polygon class="cls-3" points="1380.83 881.35 1223.93 881.35 1223.93 945.57 1380.53 945.57 1380.83 945.33 1380.83 881.35"/>
  <polygon class="cls-1" points="1221.67 881.35 1145.26 749.52 1146.37 815.46 1221.67 945.57 1221.67 881.35"/>
  <polygon class="cls-2" points="1382.68 881.26 1459.09 749.44 1457.98 815.38 1382.68 945.49 1382.68 881.26"/>
  <polygon class="cls-3" points="749.04 881.06 592.14 881.06 592.14 945.28 748.74 945.28 749.04 945.04 749.04 881.06"/>
  <polygon class="cls-1" points="589.88 881.06 513.47 749.23 514.58 815.17 589.88 945.28 589.88 881.06"/>
  <polygon class="cls-2" points="750.89 880.97 827.3 749.14 826.19 815.08 750.89 945.19 750.89 880.97"/>
  <polygon class="cls-3" points="1065.1 881.06 908.2 881.06 908.2 945.28 1064.8 945.28 1065.1 945.04 1065.1 881.06"/>
  <polygon class="cls-1" points="905.94 881.06 829.53 749.23 830.63 815.17 905.94 945.28 905.94 881.06"/>
  <polygon class="cls-2" points="1066.95 880.97 1143.36 749.14 1142.25 815.08 1066.95 945.19 1066.95 880.97"/>
  <polygon class="cls-1" points="591.92 608.18 513.25 474.84 514.39 541.54 591.92 673.14 591.92 608.18"/>
  <polygon class="cls-1" points="907.56 334.4 828.89 201.06 830.03 267.76 907.56 399.36 907.56 334.4"/>
  <polygon class="cls-1" points="1223.73 334.73 1145.06 201.39 1146.2 268.09 1223.73 399.69 1223.73 334.73"/>
  <polygon class="cls-1" points="1223.73 609.66 1145.06 476.31 1146.2 543.01 1223.73 674.62 1223.73 609.66"/>
  <polygon class="cls-1" points="907.68 609.66 829.01 476.31 830.15 543.01 907.68 674.62 907.68 609.66"/>
  <polygon class="cls-2" points="1065.37 334.79 1143.64 201.38 1142.5 268.11 1065.37 399.78 1065.37 334.79"/>
  <polygon class="cls-2" points="749.13 608.34 827.39 474.94 826.25 541.67 749.13 673.33 749.13 608.34"/>
  <polygon class="cls-2" points="1065.02 609.8 1143.28 476.4 1142.15 543.13 1065.02 674.79 1065.02 609.8"/>
  <polygon class="cls-2" points="1381.27 334.55 1459.53 201.15 1458.4 267.88 1381.27 399.54 1381.27 334.55"/>
  <polygon class="cls-2" points="1381.27 608.35 1459.53 474.95 1458.4 541.68 1381.27 673.34 1381.27 608.35"/>
  <path class="cls-4" d="M749.28,60h-157.06l-78.53,135.77,78.53,135.77h157.06l78.53-135.77-78.53-135.77ZM699.78,238.16v-3.04c3.04,0,4.57-1.01,4.57-3.04l-.02-56.07h-.34l-33.99,62.16h-.51l-33.35-62.31h-.34s.02,56.24.02,56.24c0,2.03,1.58,3.04,4.74,3.04v3.04s-25.38,0-25.38,0v-3.04c.9,0,1.69-.25,2.37-.76.68-.51,1.01-1.27,1.01-2.28l-.02-77.01c0-1.01-.34-1.72-1.02-2.11-.68-.39-1.47-.59-2.37-.59v-3.04s31.64,0,31.64,0v3.04c-.56,0-1.16.17-1.78.51-.62.34-.93.85-.93,1.52,0,.56.22,1.3.68,2.19.45.9.96,1.86,1.52,2.87l24.21,43.9,24.35-43.41c.79-1.46,1.38-2.62,1.78-3.46.39-.85.59-1.6.59-2.28,0-1.24-.74-1.86-2.2-1.86v-3.04s31.3,0,31.3,0v3.04c-.9,0-1.69.2-2.37.59-.68.4-1.02,1.1-1.01,2.11l.02,77.01c0,1.01.34,1.77,1.02,2.28.68.51,1.46.76,2.37.76v3.04s-26.56,0-26.56,0Z"/>
  <path class="cls-4" d="M1064.93,60h-157.06l-78.53,135.77,78.53,135.77h157.06l78.53-135.77-78.53-135.77ZM1033.77,226c-.34,0-.65-.03-.93-.08-.28-.06-.59-.08-.93-.08-.68,0-2.28.68-4.82,2.03-2.54,1.35-5.75,2.87-9.64,4.56-3.89,1.69-8.32,3.15-13.28,4.39-4.96,1.24-10.15,1.86-15.56,1.86-7.11,0-13.93-.9-20.47-2.7-6.54-1.8-12.32-4.59-17.34-8.36-5.02-3.77-9-8.47-11.93-14.1-2.93-5.63-4.4-12.21-4.4-19.76s1.46-13.99,4.4-19.67c2.93-5.68,6.91-10.44,11.93-14.27,5.02-3.83,10.8-6.7,17.34-8.61,6.54-1.91,13.37-2.87,20.47-2.87,5.75,0,10.97.45,15.65,1.35,4.68.9,8.77,1.86,12.27,2.87,3.49,1.01,6.26,1.97,8.29,2.87,2.03.9,3.27,1.35,3.72,1.35.56,0,1.04-.28,1.44-.84.39-.56.7-1.01.93-1.35l2.54,2.03-13.2,20.43-1.69-1.18c0-.34-.03-.68-.08-1.01-.06-.34-.14-.73-.25-1.18-.23-1.24-1.35-2.5-3.38-3.8-2.03-1.29-4.54-2.45-7.53-3.46-2.99-1.01-6.15-1.86-9.47-2.53-3.33-.68-6.4-1.01-9.22-1.01-4.74,0-9.28.68-13.62,2.03-4.34,1.35-8.12,3.32-11.34,5.91-3.21,2.59-5.78,5.77-7.7,9.54-1.92,3.77-2.88,8.08-2.88,12.92s.96,9.15,2.88,12.92c1.92,3.77,4.48,6.95,7.7,9.54,3.21,2.59,6.99,4.56,11.34,5.91,4.34,1.35,8.88,2.03,13.62,2.03,3.61,0,7.39-.42,11.34-1.27,3.95-.85,7.55-1.91,10.83-3.21,3.27-1.29,6.01-2.76,8.21-4.39,2.2-1.63,3.3-3.18,3.3-4.64,0-.79-.23-1.46-.68-2.03l2.37-1.35,11.17,17.9-1.35,1.35Z"/>
  <path class="cls-4" d="M1380.84,60h-157.06l-78.53,135.77,78.53,135.77h157.06l78.53-135.77-78.53-135.77ZM1337.07,152.37c-1.92,0-3.55.45-4.91,1.35-1.35.9-2.03,2.14-2.03,3.72v55.73c0,4.39-.93,8.22-2.79,11.48-1.86,3.27-4.48,5.97-7.87,8.11-3.38,2.14-7.39,3.66-12.01,4.56-4.63.9-9.76,1.35-15.4,1.35-3.5,0-6.71-.23-9.64-.67-2.93-.45-5.56-.98-7.87-1.61-2.31-.62-4.34-1.21-6.09-1.77-1.75-.56-3.19-.84-4.31-.84-1.24,0-2.26.67-3.05,2.03l-2.54-1.69,8.97-20.6,2.71,1.01c.34,1.8,1.21,3.38,2.62,4.73,1.41,1.35,3.13,2.51,5.16,3.46,2.03.96,4.23,1.69,6.6,2.2,2.37.51,4.62.76,6.77.76,6.77,0,11.7-.98,14.8-2.96,3.1-1.97,4.65-5.66,4.65-11.06v-54.21c0-1.58-.68-2.81-2.03-3.72-1.35-.9-2.65-1.35-3.89-1.35v-3.04h32.15v3.04Z"/>
  <path class="cls-4" d="M749.27,334.02h-157.06l-78.53,135.77,78.53,135.77h157.06l78.53-135.77-78.53-135.77ZM745.35,426.39c-1.24,0-2.17.68-2.79,2.03-.62,1.35-1.33,3.04-2.11,5.07l-24.36,64.51c-.68,1.8-1.27,3.38-1.78,4.73-.51,1.35-.76,2.48-.76,3.38,0,.79.28,1.49.85,2.11.56.62,1.35.93,2.37.93v3.04h-26.73v-3.04c.68-.22,1.38-.56,2.11-1.01.73-.45,1.1-1.07,1.1-1.86,0-.9-.2-1.91-.59-3.04-.4-1.12-1.04-2.7-1.95-4.73l-19.46-49.82h-.34l-18.44,48.81c-1.69,4.39-2.54,7.15-2.54,8.28,0,1.8.73,2.93,2.2,3.38v3.04h-26.22v-3.04c.68,0,1.35-.17,2.03-.51s1.02-.9,1.02-1.69c0-.9-.2-1.86-.59-2.87-.4-1.01-.82-2.08-1.27-3.21l-27.07-69.75c-.45-1.24-.93-2.28-1.44-3.12-.51-.85-1.33-1.38-2.45-1.61v-3.04h26.22v3.04c-1.69,0-2.54,1.07-2.54,3.21,0,.56.08,1.24.25,2.03.17.79.59,2.09,1.27,3.88l18.1,46.95h.34l17.93-47.62c.56-1.46.93-2.56,1.1-3.29.17-.73.25-1.38.25-1.94,0-2.14-.73-3.21-2.2-3.21v-3.04h28.93v3.04c-.79,0-1.35.28-1.69.85-.34.56-.51,1.18-.51,1.86,0,1.13.56,3.04,1.69,5.74l18.1,47.62h.34l18.27-48.64c.79-1.69,1.18-3.21,1.18-4.56,0-.68-.28-1.32-.85-1.94-.57-.62-1.24-.93-2.03-.93v-3.04h25.04v3.04Z"/>
  <path class="cls-4" d="M1065.06,334.02h-157.06l-78.53,135.77,78.53,135.77h157.06l78.53-135.77-78.53-135.77ZM1032.3,515.39h-3.05c0-1.69-.54-2.65-1.61-2.87-1.07-.23-2.45-.34-4.15-.34h-78.84v-3.04c.79,0,1.49-.25,2.11-.76.62-.51.93-1.27.93-2.28v-76.67c0-1.01-.31-1.77-.93-2.28-.62-.51-1.33-.76-2.11-.76v-3.04h77.15c2.37,0,4.03-.36,4.99-1.1.96-.73,1.44-1.72,1.44-2.96h3.05v22.29h-3.05c0-1.24-.48-2.17-1.44-2.79-.96-.62-2.62-.93-4.99-.93h-54.82v20.94h33.16c2.25,0,4-.31,5.24-.93,1.24-.62,1.86-2.22,1.86-4.81h3.05v26.35h-3.05c0-2.59-.62-4.25-1.86-4.98-1.24-.73-2.99-1.1-5.24-1.1h-33.16v23.31h56.51c1.69,0,3.07-.39,4.15-1.18,1.07-.79,1.61-1.86,1.61-3.21h3.05v23.14Z"/>
  <g>
    <path class="cls-4" d="M1324.31,456.2c3.33-1.29,4.99-4.03,4.99-8.19s-1.67-6.89-4.99-8.19c-3.33-1.29-7.53-1.94-12.6-1.94h-32.31v20.27h32.31c5.08,0,9.28-.65,12.6-1.94Z"/>
    <path class="cls-4" d="M1327.01,475.96c-3.1-2.2-8.21-3.29-15.31-3.29h-32.31v23.98h32.31c7.11,0,12.21-1.1,15.31-3.29,3.1-2.2,4.65-5.09,4.65-8.7s-1.55-6.5-4.65-8.7Z"/>
    <path class="cls-4" d="M1380.93,334.02h-157.06l-78.53,135.77,78.53,135.77h157.06l78.53-135.77-78.53-135.77ZM1348.75,497.91c-1.47,2.87-3.64,5.38-6.51,7.52-2.88,2.14-6.4,3.8-10.57,4.98-4.17,1.18-8.91,1.77-14.21,1.77h-62.09v-3.04c3.16,0,4.74-1.01,4.74-3.04v-76.67c0-2.03-1.58-3.04-4.74-3.04v-3.04h52.95c5.19,0,10.21.42,15.06,1.27,4.85.84,9.14,2.2,12.86,4.05,3.72,1.86,6.71,4.28,8.97,7.26,2.25,2.98,3.38,6.67,3.38,11.06,0,5.29-1.64,9.37-4.91,12.24-3.27,2.87-7.16,5.1-11.67,6.67v.34c5.3,1.58,9.78,4.08,13.45,7.51,3.66,3.44,5.5,8.36,5.5,14.78,0,3.38-.73,6.5-2.2,9.37Z"/>
  </g>
  <path class="cls-4" d="M1065.23,607.59h-157.06l-78.53,135.77,78.53,135.77h157.06l78.53-135.77-78.53-135.77ZM1032.47,788.97h-3.05c0-1.69-.54-2.65-1.61-2.87-1.07-.23-2.45-.34-4.15-.34h-78.84v-3.04c.79,0,1.49-.25,2.11-.76.62-.51.93-1.27.93-2.28v-76.67c0-1.01-.31-1.77-.93-2.28-.62-.51-1.33-.76-2.11-.76v-3.04h77.15c2.37,0,4.03-.36,4.99-1.1.96-.73,1.44-1.72,1.44-2.96h3.05v22.29h-3.05c0-1.24-.48-2.17-1.44-2.79-.96-.62-2.62-.93-4.99-.93h-54.82v20.94h33.16c2.25,0,4-.31,5.24-.93,1.24-.62,1.86-2.22,1.86-4.81h3.05v26.35h-3.05c0-2.59-.62-4.25-1.86-4.98-1.24-.73-2.99-1.1-5.24-1.1h-33.16v23.31h56.51c1.69,0,3.07-.39,4.15-1.18,1.07-.79,1.61-1.86,1.61-3.21h3.05v23.14Z"/>
  <path class="cls-4" d="M1381.1,607.59h-157.06l-78.53,135.77,78.53,135.77h157.06l78.53-135.77-78.53-135.77ZM1355.1,699.97c-2.26,0-3.89.82-4.91,2.45-1.02,1.63-1.75,2.96-2.2,3.97l-29.95,65.69c-1.01,2.25-1.86,4.05-2.54,5.4-.68,1.35-1.02,2.31-1.02,2.87s.14,1.01.42,1.35c.28.34.65.68,1.1,1.01v3.04h-25.89v-3.04c1.02-.45,1.52-1.24,1.52-2.36,0-.56-.42-1.72-1.27-3.46-.85-1.74-1.89-3.91-3.13-6.5l-30.45-66.03c-.57-1.24-1.35-2.14-2.37-2.7-1.02-.56-2.48-1.12-4.4-1.69v-3.04h30.28v3.04c-.79,0-1.55.2-2.28.59-.74.4-1.1,1.16-1.1,2.28,0,1.24.48,2.81,1.44,4.73.96,1.92,2.11,4.28,3.47,7.09l21.66,46.44,21.15-45.77c1.35-2.93,2.62-5.54,3.81-7.85,1.18-2.31,1.78-3.91,1.78-4.81,0-1.8-1.58-2.7-4.74-2.7v-3.04h29.61v3.04Z"/>
  <g>
    <path class="cls-4" d="M695.05,717.01c-2.6-2.31-5.87-3.91-9.81-4.81-3.95-.9-8.57-1.35-13.87-1.35h-26.22v59.78h26.22c5.3,0,9.92-.45,13.87-1.35,3.95-.9,7.22-2.5,9.81-4.81,2.59-2.31,4.54-5.38,5.84-9.2,1.3-3.83,1.95-8.67,1.95-14.52s-.65-10.7-1.95-14.52c-1.3-3.83-3.24-6.9-5.84-9.2Z"/>
    <path class="cls-4" d="M749.05,606.99h-157.06l-78.53,135.77,78.53,135.77h157.06l78.53-135.77-78.53-135.77ZM718.74,760.41c-2.26,5.57-5.36,10.19-9.3,13.85-3.95,3.66-8.6,6.39-13.96,8.19-5.36,1.8-11.14,2.7-17.34,2.7h-56.17v-3.04c2.59,0,3.89-1.01,3.89-3.04v-76.67c0-2.03-1.3-3.04-3.89-3.04v-3.04h56.17c6.2,0,11.98.9,17.34,2.7,5.36,1.8,10.01,4.53,13.96,8.19,3.95,3.66,7.05,8.28,9.3,13.85,2.26,5.57,3.38,12.13,3.38,19.67s-1.13,14.1-3.38,19.67Z"/>
  </g>
</svg>