<?xml version="1.0" encoding="UTF-8"?>
<svg id="B_W_2" data-name="B&amp;amp;W 2" xmlns="http://www.w3.org/2000/svg" viewBox="0 0 1920 1080">
  <defs>
    <style>
      .cls-1 {
        opacity: .67;
      }

      .cls-2 {
        opacity: .5;
      }

      .cls-3 {
        opacity: .33;
      }
    </style>
  </defs>
  <path d="M672.76,34.55h-163.79l-81.89,141.84,81.89,141.84h163.79l81.89-141.84-81.89-141.84ZM621.14,220.67v-3.18c3.17,0,4.76-1.06,4.76-3.18l-.02-58.57h-.35l-35.44,64.93h-.53l-34.77-65.09h-.35s.02,58.75.02,58.75c0,2.12,1.65,3.17,4.94,3.17v3.18s-26.46,0-26.46,0v-3.18c.94,0,1.76-.27,2.47-.79.71-.53,1.06-1.32,1.06-2.38l-.02-80.45c0-1.06-.35-1.79-1.06-2.2-.71-.41-1.53-.62-2.47-.62v-3.17s32.99,0,32.99,0v3.17c-.59,0-1.21.18-1.85.53-.65.35-.97.88-.97,1.59,0,.59.23,1.35.71,2.29.47.94,1,1.94,1.59,3l25.24,45.86,25.39-45.35c.82-1.53,1.44-2.73,1.85-3.62.41-.88.62-1.68.62-2.38,0-1.29-.77-1.94-2.29-1.94v-3.17s32.64,0,32.64,0v3.17c-.94,0-1.76.21-2.47.62-.71.41-1.06,1.15-1.06,2.2l.02,80.45c0,1.06.35,1.85,1.06,2.38.71.53,1.53.79,2.47.79v3.18s-27.7,0-27.7,0Z"/>
  <path d="M1001.92,34.55h-163.79l-81.89,141.84,81.89,141.84h163.79l81.89-141.84-81.89-141.84ZM969.42,207.98c-.35,0-.68-.03-.97-.09-.29-.06-.62-.09-.97-.09-.71,0-2.38.71-5.03,2.12-2.65,1.41-6,3-10.06,4.76-4.06,1.76-8.68,3.29-13.85,4.59-5.18,1.3-10.59,1.94-16.23,1.94-7.41,0-14.53-.94-21.35-2.82-6.82-1.88-12.85-4.79-18.08-8.73-5.23-3.94-9.38-8.85-12.44-14.73-3.06-5.88-4.59-12.76-4.59-20.64s1.53-14.61,4.59-20.55c3.06-5.94,7.2-10.91,12.44-14.91,5.23-4,11.26-7,18.08-9,6.82-2,13.94-3,21.35-3,6,0,11.44.47,16.32,1.41,4.88.94,9.14,1.94,12.79,3,3.64,1.06,6.53,2.06,8.64,3,2.12.94,3.41,1.41,3.88,1.41.59,0,1.09-.29,1.5-.88.41-.59.73-1.06.97-1.41l2.65,2.12-13.76,21.35-1.76-1.23c0-.35-.03-.71-.09-1.06-.06-.35-.15-.76-.26-1.23-.24-1.29-1.41-2.62-3.53-3.97-2.12-1.35-4.74-2.56-7.85-3.62-3.12-1.06-6.41-1.94-9.88-2.65-3.47-.71-6.68-1.06-9.62-1.06-4.94,0-9.68.71-14.2,2.12-4.53,1.41-8.47,3.47-11.82,6.18-3.35,2.71-6.03,6.03-8.03,9.97-2,3.94-3,8.44-3,13.5s1,9.56,3,13.5c2,3.94,4.68,7.26,8.03,9.97,3.35,2.71,7.29,4.76,11.82,6.18,4.53,1.41,9.26,2.12,14.2,2.12,3.76,0,7.7-.44,11.82-1.32,4.12-.88,7.88-2,11.29-3.35,3.41-1.35,6.26-2.88,8.56-4.59,2.29-1.7,3.44-3.32,3.44-4.85,0-.82-.24-1.53-.71-2.12l2.47-1.41,11.64,18.7-1.41,1.41Z"/>
  <path d="M1331.35,34.55h-163.79l-81.89,141.84,81.89,141.84h163.79l81.89-141.84-81.89-141.84ZM1285.72,131.05c-2,0-3.71.47-5.12,1.41-1.41.94-2.12,2.24-2.12,3.88v58.22c0,4.59-.97,8.59-2.91,12-1.94,3.41-4.68,6.23-8.2,8.47-3.53,2.24-7.71,3.82-12.53,4.76-4.82.94-10.17,1.41-16.05,1.41-3.65,0-7-.24-10.06-.7-3.06-.47-5.79-1.03-8.2-1.68-2.41-.64-4.53-1.26-6.35-1.85-1.82-.59-3.32-.88-4.5-.88-1.3,0-2.35.7-3.18,2.12l-2.65-1.76,9.35-21.52,2.82,1.06c.35,1.88,1.26,3.53,2.73,4.94,1.47,1.41,3.26,2.62,5.38,3.62,2.12,1,4.41,1.76,6.88,2.29,2.47.53,4.82.79,7.06.79,7.06,0,12.2-1.03,15.44-3.09,3.23-2.06,4.85-5.91,4.85-11.56v-56.63c0-1.65-.71-2.94-2.12-3.88-1.41-.94-2.76-1.41-4.06-1.41v-3.17h33.52v3.17Z"/>
  <path d="M672.75,320.82h-163.79l-81.89,141.84,81.89,141.84h163.79l81.89-141.84-81.89-141.84ZM668.66,417.32c-1.3,0-2.27.71-2.91,2.12-.65,1.41-1.38,3.18-2.21,5.29l-25.41,67.39c-.71,1.88-1.32,3.53-1.85,4.94-.53,1.41-.79,2.59-.79,3.53,0,.82.29,1.56.88,2.2.59.65,1.41.97,2.47.97v3.18h-27.88v-3.18c.71-.23,1.44-.59,2.21-1.06.76-.47,1.15-1.12,1.15-1.94,0-.94-.21-2-.62-3.17-.41-1.17-1.09-2.82-2.03-4.94l-20.29-52.05h-.35l-19.23,50.99c-1.76,4.59-2.65,7.47-2.65,8.65,0,1.88.76,3.06,2.29,3.53v3.18h-27.35v-3.18c.71,0,1.41-.18,2.12-.53s1.06-.94,1.06-1.76c0-.94-.21-1.94-.62-3-.41-1.06-.85-2.17-1.32-3.35l-28.23-72.86c-.47-1.29-.97-2.38-1.5-3.26-.53-.88-1.38-1.44-2.56-1.68v-3.17h27.35v3.17c-1.76,0-2.65,1.12-2.65,3.35,0,.59.09,1.3.26,2.12.18.82.62,2.18,1.32,4.06l18.88,49.05h.35l18.7-49.75c.59-1.53.97-2.67,1.15-3.44.18-.76.26-1.44.26-2.03,0-2.23-.77-3.35-2.29-3.35v-3.17h30.17v3.17c-.82,0-1.41.3-1.76.88-.35.59-.53,1.23-.53,1.94,0,1.18.59,3.18,1.76,6l18.88,49.75h.35l19.05-50.81c.82-1.76,1.24-3.35,1.24-4.76,0-.71-.29-1.38-.88-2.03-.59-.65-1.3-.97-2.12-.97v-3.17h26.11v3.17Z"/>
  <path d="M1002.06,320.82h-163.79l-81.89,141.84,81.89,141.84h163.79l81.89-141.84-81.89-141.84ZM967.89,510.3h-3.18c0-1.76-.56-2.76-1.68-3-1.12-.24-2.56-.35-4.32-.35h-82.22v-3.18c.82,0,1.56-.26,2.21-.79.65-.53.97-1.32.97-2.38v-80.1c0-1.06-.33-1.85-.97-2.38-.65-.53-1.38-.79-2.21-.79v-3.17h80.45c2.47,0,4.2-.38,5.2-1.15,1-.76,1.5-1.79,1.5-3.09h3.18v23.29h-3.18c0-1.29-.5-2.26-1.5-2.91-1-.64-2.73-.97-5.2-.97h-57.16v21.88h34.58c2.35,0,4.17-.32,5.47-.97,1.29-.64,1.94-2.32,1.94-5.03h3.18v27.52h-3.18c0-2.7-.65-4.44-1.94-5.21-1.3-.76-3.12-1.15-5.47-1.15h-34.58v24.35h58.93c1.76,0,3.2-.41,4.32-1.23,1.12-.82,1.68-1.94,1.68-3.35h3.18v24.17Z"/>
  <g>
    <path d="M1272.4,448.46c3.47-1.35,5.21-4.2,5.21-8.56s-1.74-7.2-5.21-8.56c-3.47-1.35-7.85-2.03-13.14-2.03h-33.7v21.17h33.7c5.29,0,9.67-.68,13.14-2.03Z"/>
    <path d="M1275.22,469.11c-3.24-2.29-8.56-3.44-15.97-3.44h-33.7v25.05h33.7c7.41,0,12.73-1.15,15.97-3.44,3.23-2.29,4.85-5.32,4.85-9.09s-1.62-6.79-4.85-9.09Z"/>
    <path d="M1331.44,320.82h-163.79l-81.89,141.84,81.89,141.84h163.79l81.89-141.84-81.89-141.84ZM1297.89,492.04c-1.53,3-3.79,5.62-6.79,7.85-3,2.24-6.68,3.97-11.03,5.2-4.35,1.24-9.29,1.85-14.82,1.85h-64.75v-3.18c3.29,0,4.94-1.06,4.94-3.17v-80.1c0-2.12-1.65-3.18-4.94-3.18v-3.17h55.22c5.41,0,10.64.44,15.7,1.32,5.06.88,9.53,2.29,13.41,4.23,3.88,1.94,7,4.47,9.35,7.59,2.35,3.12,3.53,6.97,3.53,11.56,0,5.53-1.71,9.79-5.12,12.79-3.41,3-7.47,5.32-12.17,6.97v.35c5.53,1.65,10.2,4.26,14.03,7.85,3.82,3.59,5.73,8.73,5.73,15.44,0,3.53-.77,6.79-2.29,9.79Z"/>
  </g>
  <path d="M1002.24,606.62h-163.79l-81.89,141.84,81.89,141.84h163.79l81.89-141.84-81.89-141.84ZM968.07,796.1h-3.18c0-1.76-.56-2.76-1.68-3-1.12-.24-2.56-.35-4.32-.35h-82.22v-3.18c.82,0,1.56-.26,2.21-.79.65-.53.97-1.32.97-2.38v-80.1c0-1.06-.33-1.85-.97-2.38-.65-.53-1.38-.79-2.21-.79v-3.17h80.45c2.47,0,4.2-.38,5.2-1.15,1-.76,1.5-1.79,1.5-3.09h3.18v23.29h-3.18c0-1.29-.5-2.26-1.5-2.91-1-.64-2.73-.97-5.2-.97h-57.16v21.88h34.58c2.35,0,4.17-.32,5.47-.97,1.29-.64,1.94-2.32,1.94-5.03h3.18v27.52h-3.18c0-2.7-.65-4.44-1.94-5.21-1.3-.76-3.12-1.15-5.47-1.15h-34.58v24.35h58.93c1.76,0,3.2-.41,4.32-1.23,1.12-.82,1.68-1.94,1.68-3.35h3.18v24.17Z"/>
  <path d="M1331.62,606.62h-163.79l-81.89,141.84,81.89,141.84h163.79l81.89-141.84-81.89-141.84ZM1304.51,703.13c-2.35,0-4.06.86-5.12,2.56-1.06,1.71-1.82,3.09-2.29,4.15l-31.23,68.63c-1.06,2.35-1.94,4.23-2.65,5.65-.71,1.41-1.06,2.41-1.06,3s.15,1.06.44,1.41c.29.35.68.71,1.15,1.06v3.18h-26.99v-3.18c1.06-.47,1.59-1.29,1.59-2.47,0-.59-.44-1.79-1.32-3.62-.88-1.82-1.97-4.09-3.26-6.79l-31.76-68.98c-.59-1.29-1.41-2.23-2.47-2.82-1.06-.59-2.59-1.17-4.59-1.76v-3.17h31.58v3.17c-.82,0-1.62.21-2.38.62-.77.41-1.15,1.21-1.15,2.38,0,1.3.5,2.94,1.5,4.94,1,2,2.21,4.47,3.62,7.41l22.58,48.52,22.05-47.81c1.41-3.06,2.73-5.79,3.97-8.2,1.24-2.41,1.85-4.09,1.85-5.03,0-1.88-1.65-2.82-4.94-2.82v-3.17h30.87v3.17Z"/>
  <polygon class="cls-3" points="508.93 321.32 426.89 182.01 428.08 251.69 508.93 389.18 508.93 321.32"/>
  <polygon class="cls-1" points="672.54 321.29 754.15 181.92 752.97 251.64 672.54 389.18 672.54 321.29"/>
  <polygon class="cls-2" points="1331.34 892.62 1167.73 892.62 1167.73 959.71 1331.03 959.71 1331.34 959.46 1331.34 892.62"/>
  <polygon class="cls-3" points="1165.37 892.62 1085.69 754.89 1086.84 823.79 1165.37 959.71 1165.37 892.62"/>
  <polygon class="cls-1" points="1333.27 892.53 1412.95 754.81 1411.8 823.7 1333.27 959.62 1333.27 892.53"/>
  <polygon class="cls-2" points="672.51 892.31 508.89 892.31 508.89 959.4 672.2 959.4 672.51 959.15 672.51 892.31"/>
  <polygon class="cls-3" points="506.53 892.31 426.85 754.59 428.01 823.48 506.53 959.4 506.53 892.31"/>
  <polygon class="cls-1" points="674.43 892.22 754.12 754.5 752.96 823.39 674.43 959.31 674.43 892.22"/>
  <polygon class="cls-2" points="1002.09 892.31 838.48 892.31 838.48 959.4 1001.79 959.4 1002.09 959.15 1002.09 892.31"/>
  <polygon class="cls-3" points="836.12 892.31 756.44 754.59 757.59 823.48 836.12 959.4 836.12 892.31"/>
  <polygon class="cls-1" points="1004.02 892.22 1083.7 754.5 1082.55 823.39 1004.02 959.31 1004.02 892.22"/>
  <polygon class="cls-3" points="508.66 607.24 426.62 467.93 427.81 537.61 508.66 675.1 508.66 607.24"/>
  <polygon class="cls-3" points="837.81 321.22 755.77 181.91 756.96 251.6 837.81 389.08 837.81 321.22"/>
  <polygon class="cls-3" points="1167.52 321.56 1085.49 182.26 1086.67 251.94 1167.52 389.43 1167.52 321.56"/>
  <polygon class="cls-3" points="1167.52 608.78 1085.49 469.47 1086.67 539.16 1167.52 676.64 1167.52 608.78"/>
  <polygon class="cls-3" points="837.93 608.78 755.9 469.47 757.09 539.16 837.93 676.64 837.93 608.78"/>
  <polygon class="cls-1" points="1002.38 321.62 1083.99 182.26 1082.81 251.97 1002.38 389.52 1002.38 321.62"/>
  <polygon class="cls-1" points="672.6 607.41 754.21 468.04 753.02 537.76 672.6 675.3 672.6 607.41"/>
  <polygon class="cls-1" points="1002.02 608.93 1083.63 469.57 1082.44 539.28 1002.02 676.83 1002.02 608.93"/>
  <polygon class="cls-1" points="1331.81 321.37 1413.42 182.01 1412.23 251.72 1331.81 389.27 1331.81 321.37"/>
  <polygon class="cls-1" points="1331.81 607.41 1413.42 468.05 1412.23 537.76 1331.81 675.31 1331.81 607.41"/>
  <g>
    <path d="M616.21,720.93c-2.71-2.41-6.12-4.09-10.23-5.03-4.12-.94-8.94-1.41-14.47-1.41h-27.35v62.46h27.35c5.53,0,10.35-.47,14.47-1.41,4.12-.94,7.53-2.62,10.23-5.03,2.7-2.41,4.73-5.62,6.09-9.62,1.35-4,2.03-9.06,2.03-15.17s-.68-11.17-2.03-15.17c-1.35-4-3.38-7.2-6.09-9.62Z"/>
    <path d="M672.52,605.99h-163.79l-81.89,141.84,81.89,141.84h163.79l81.89-141.84-81.89-141.84ZM640.91,766.27c-2.35,5.82-5.59,10.65-9.7,14.47-4.12,3.82-8.97,6.68-14.56,8.56-5.59,1.88-11.62,2.82-18.08,2.82h-58.57v-3.18c2.7,0,4.06-1.06,4.06-3.17v-80.1c0-2.12-1.35-3.18-4.06-3.18v-3.17h58.57c6.47,0,12.5.94,18.08,2.82,5.58,1.88,10.44,4.73,14.56,8.56,4.12,3.82,7.35,8.65,9.7,14.47,2.35,5.82,3.53,12.67,3.53,20.55s-1.18,14.73-3.53,20.55Z"/>
  </g>
</svg>