<?xml version="1.0" encoding="UTF-8"?>
<svg id="main_logo" xmlns="http://www.w3.org/2000/svg" viewBox="0 0 1920 1080">
  <defs>
    <style>
      .cls-1 {
        fill: #4e9ccc;
      }

      .cls-2 {
        fill: #25465b;
      }

      .cls-3 {
        fill: #fff;
      }

      .cls-4 {
        fill: #4481a7;
      }

      .cls-5 {
        fill: #e62a66;
      }
    </style>
  </defs>
  <rect class="cls-3" x="542.63" y="686.02" width="132.73" height="107.65"/>
  <rect class="cls-3" x="854.07" y="680.79" width="132.73" height="107.65"/>
  <rect class="cls-3" x="1146.7" y="674.52" width="132.73" height="107.65"/>
  <rect class="cls-3" x="1136.25" y="436.24" width="132.73" height="107.65"/>
  <rect class="cls-3" x="842.57" y="425.79" width="132.73" height="107.65"/>
  <rect class="cls-3" x="539.49" y="431.01" width="159.9" height="116.01"/>
  <rect class="cls-3" x="1143.56" y="173.92" width="132.73" height="107.65"/>
  <rect class="cls-3" x="853.03" y="169.74" width="132.73" height="107.65"/>
  <rect class="cls-3" x="556.22" y="173.92" width="132.73" height="107.65"/>
  <polygon class="cls-1" points="552.25 358.48 479.41 234.79 480.47 296.66 552.25 418.73 552.25 358.48"/>
  <polygon class="cls-2" points="697.52 358.45 769.98 234.72 768.93 296.61 697.52 418.73 697.52 358.45"/>
  <polygon class="cls-4" points="1282.44 865.71 1137.17 865.71 1137.17 925.28 1282.17 925.28 1282.44 925.06 1282.44 865.71"/>
  <polygon class="cls-1" points="1135.08 865.71 1064.34 743.44 1065.36 804.6 1135.08 925.28 1135.08 865.71"/>
  <polygon class="cls-2" points="1284.15 865.63 1354.9 743.36 1353.88 804.52 1284.15 925.21 1284.15 865.63"/>
  <polygon class="cls-4" points="697.49 865.44 552.22 865.44 552.22 925.01 697.21 925.01 697.49 924.79 697.49 865.44"/>
  <polygon class="cls-1" points="550.13 865.44 479.38 743.16 480.4 804.33 550.13 925.01 550.13 865.44"/>
  <polygon class="cls-2" points="699.2 865.36 769.94 743.08 768.92 804.25 699.2 924.93 699.2 865.36"/>
  <polygon class="cls-4" points="990.12 865.44 844.85 865.44 844.85 925.01 989.84 925.01 990.12 924.79 990.12 865.44"/>
  <polygon class="cls-1" points="842.76 865.44 772.01 743.16 773.03 804.33 842.76 925.01 842.76 865.44"/>
  <polygon class="cls-2" points="991.83 865.36 1062.57 743.08 1061.55 804.25 991.83 924.93 991.83 865.36"/>
  <polygon class="cls-1" points="552.01 612.34 479.17 488.65 480.23 550.52 552.01 672.59 552.01 612.34"/>
  <polygon class="cls-1" points="844.25 358.39 771.41 234.71 772.47 296.58 844.25 418.65 844.25 358.39"/>
  <polygon class="cls-1" points="1136.99 358.7 1064.16 235.01 1065.21 296.88 1136.99 418.95 1136.99 358.7"/>
  <polygon class="cls-1" points="1136.99 613.7 1064.16 490.02 1065.21 551.89 1136.99 673.96 1136.99 613.7"/>
  <polygon class="cls-1" points="844.36 613.7 771.53 490.02 772.58 551.89 844.36 673.96 844.36 613.7"/>
  <polygon class="cls-2" points="990.37 358.75 1062.83 235.01 1061.78 296.91 990.37 419.03 990.37 358.75"/>
  <polygon class="cls-2" points="697.57 612.49 770.03 488.75 768.98 550.65 697.57 672.77 697.57 612.49"/>
  <polygon class="cls-2" points="990.05 613.84 1062.51 490.11 1061.46 552 990.05 674.12 990.05 613.84"/>
  <polygon class="cls-2" points="1282.85 358.53 1355.31 234.79 1354.26 296.69 1282.85 418.81 1282.85 358.53"/>
  <polygon class="cls-2" points="1282.85 612.49 1355.31 488.75 1354.26 550.65 1282.85 672.77 1282.85 612.49"/>
  <path class="cls-5" d="M697.71,103.87h-145.42l-72.71,125.94,72.71,125.94h145.42l72.71-125.94-72.71-125.94ZM651.88,269.12v-2.82c2.82,0,4.23-.94,4.23-2.82v-52.01h-.33l-31.47,57.65h-.47l-30.87-57.79h-.31s.01,52.16.01,52.16c0,1.88,1.46,2.82,4.39,2.82v2.82s-23.5,0-23.5,0v-2.82c.83,0,1.57-.24,2.19-.71.63-.47.94-1.17.94-2.11l-.02-71.43c0-.94-.31-1.59-.94-1.96-.63-.37-1.36-.55-2.19-.55v-2.82s29.29,0,29.29,0v2.82c-.52,0-1.07.16-1.64.47-.58.31-.86.78-.86,1.41,0,.52.21,1.2.63,2.04.42.84.89,1.72,1.41,2.66l22.41,40.72,22.55-40.26c.73-1.36,1.28-2.43,1.64-3.21.36-.78.55-1.49.55-2.11,0-1.15-.68-1.72-2.04-1.72v-2.82s28.98,0,28.98,0v2.82c-.84,0-1.57.18-2.19.55-.63.37-.94,1.02-.94,1.96l.02,71.43c0,.94.31,1.64.94,2.11.63.47,1.36.7,2.19.7v2.82s-24.59,0-24.59,0Z"/>
  <path class="cls-5" d="M989.96,103.87h-145.42l-72.71,125.94,72.71,125.94h145.42l72.71-125.94-72.71-125.94ZM961.11,257.85c-.31,0-.6-.02-.86-.08-.26-.05-.55-.08-.86-.08-.63,0-2.11.63-4.46,1.88-2.35,1.25-5.33,2.66-8.93,4.23-3.6,1.57-7.7,2.92-12.3,4.07-4.6,1.15-9.4,1.72-14.41,1.72-6.58,0-12.9-.83-18.95-2.51-6.06-1.67-11.41-4.25-16.06-7.75-4.65-3.5-8.33-7.86-11.04-13.08-2.72-5.22-4.07-11.33-4.07-18.33s1.36-12.97,4.07-18.25c2.71-5.27,6.4-9.69,11.04-13.24,4.65-3.55,10-6.21,16.06-7.99,6.05-1.77,12.37-2.66,18.95-2.66,5.33,0,10.15.42,14.49,1.25,4.33.84,8.12,1.72,11.36,2.66,3.24.94,5.8,1.83,7.68,2.66,1.88.84,3.03,1.25,3.45,1.25.52,0,.96-.26,1.33-.78.36-.52.65-.94.86-1.25l2.35,1.88-12.22,18.95-1.57-1.1c0-.31-.03-.63-.08-.94-.05-.31-.13-.68-.24-1.1-.21-1.15-1.25-2.32-3.13-3.52-1.88-1.2-4.2-2.27-6.97-3.21-2.77-.94-5.69-1.72-8.77-2.35-3.08-.63-5.93-.94-8.54-.94-4.39,0-8.59.63-12.61,1.88-4.02,1.25-7.52,3.08-10.49,5.48-2.98,2.4-5.35,5.35-7.13,8.85-1.78,3.5-2.66,7.49-2.66,11.98s.89,8.49,2.66,11.98c1.77,3.5,4.15,6.45,7.13,8.85,2.98,2.4,6.47,4.23,10.49,5.48,4.02,1.25,8.22,1.88,12.61,1.88,3.34,0,6.84-.39,10.49-1.17,3.65-.78,6.99-1.77,10.02-2.98,3.03-1.2,5.56-2.56,7.6-4.07,2.04-1.51,3.05-2.95,3.05-4.31,0-.73-.21-1.36-.63-1.88l2.19-1.25,10.34,16.6-1.25,1.25Z"/>
  <path class="cls-5" d="M1282.45,103.87h-145.42l-72.71,125.94,72.71,125.94h145.42l72.71-125.94-72.71-125.94ZM1241.93,189.55c-1.78,0-3.29.42-4.54,1.25-1.25.84-1.88,1.99-1.88,3.45v51.69c0,4.07-.86,7.62-2.58,10.65-1.72,3.03-4.15,5.54-7.28,7.52-3.13,1.99-6.84,3.39-11.12,4.23-4.28.83-9.03,1.25-14.25,1.25-3.24,0-6.21-.21-8.93-.63-2.72-.42-5.14-.91-7.28-1.49-2.14-.57-4.02-1.12-5.64-1.64-1.62-.52-2.95-.78-3.99-.78-1.15,0-2.09.63-2.82,1.88l-2.35-1.57,8.3-19.11,2.51.94c.31,1.67,1.12,3.13,2.43,4.39,1.3,1.25,2.9,2.33,4.78,3.21,1.88.89,3.92,1.57,6.11,2.04,2.19.47,4.28.71,6.27.71,6.27,0,10.83-.91,13.71-2.74,2.87-1.83,4.31-5.25,4.31-10.26v-50.28c0-1.46-.63-2.61-1.88-3.45-1.25-.83-2.45-1.25-3.6-1.25v-2.82h29.76v2.82Z"/>
  <path class="cls-5" d="M697.7,358.04h-145.42l-72.71,125.94,72.71,125.94h145.42l72.71-125.94-72.71-125.94ZM694.07,443.72c-1.15,0-2.01.63-2.58,1.88-.58,1.25-1.23,2.82-1.96,4.7l-22.56,59.84c-.63,1.67-1.18,3.13-1.65,4.39-.47,1.25-.7,2.3-.7,3.13,0,.73.26,1.38.78,1.96.52.58,1.25.86,2.19.86v2.82h-24.75v-2.82c.63-.21,1.28-.52,1.96-.94.68-.42,1.02-.99,1.02-1.72,0-.83-.18-1.77-.55-2.82-.37-1.04-.97-2.51-1.8-4.39l-18.01-46.21h-.31l-17.07,45.27c-1.57,4.07-2.35,6.63-2.35,7.68,0,1.67.68,2.72,2.04,3.13v2.82h-24.28v-2.82c.63,0,1.25-.16,1.88-.47s.94-.83.94-1.57c0-.83-.18-1.72-.55-2.66-.37-.94-.76-1.93-1.17-2.98l-25.06-64.69c-.42-1.15-.86-2.11-1.33-2.9-.47-.78-1.23-1.28-2.27-1.49v-2.82h24.28v2.82c-1.57,0-2.35.99-2.35,2.98,0,.52.08,1.15.23,1.88.16.73.55,1.93,1.18,3.6l16.76,43.55h.31l16.6-44.17c.52-1.36.86-2.37,1.02-3.05.16-.68.23-1.28.23-1.8,0-1.98-.68-2.98-2.04-2.98v-2.82h26.79v2.82c-.73,0-1.25.26-1.57.78-.31.52-.47,1.1-.47,1.72,0,1.05.52,2.82,1.57,5.33l16.76,44.17h.31l16.92-45.11c.73-1.57,1.1-2.98,1.1-4.23,0-.63-.26-1.23-.78-1.8-.52-.57-1.15-.86-1.88-.86v-2.82h23.18v2.82Z"/>
  <path class="cls-5" d="M990.08,358.04h-145.42l-72.71,125.94,72.71,125.94h145.42l72.71-125.94-72.71-125.94ZM959.75,526.27h-2.82c0-1.57-.5-2.45-1.49-2.66-.99-.21-2.27-.31-3.84-.31h-73v-2.82c.73,0,1.38-.23,1.96-.7.57-.47.86-1.17.86-2.11v-71.12c0-.94-.29-1.64-.86-2.11-.58-.47-1.23-.71-1.96-.71v-2.82h71.43c2.19,0,3.73-.34,4.62-1.02.89-.68,1.33-1.59,1.33-2.74h2.82v20.68h-2.82c0-1.15-.45-2.01-1.33-2.59-.89-.57-2.43-.86-4.62-.86h-50.75v19.42h30.7c2.09,0,3.71-.29,4.86-.86,1.15-.57,1.72-2.06,1.72-4.46h2.82v24.44h-2.82c0-2.4-.58-3.94-1.72-4.62-1.15-.68-2.77-1.02-4.86-1.02h-30.7v21.62h52.32c1.57,0,2.84-.36,3.84-1.1.99-.73,1.49-1.72,1.49-2.98h2.82v21.46Z"/>
  <g>
    <path class="cls-5" d="M1230.11,471.37c3.08-1.2,4.62-3.73,4.62-7.6s-1.54-6.4-4.62-7.6c-3.08-1.2-6.97-1.8-11.67-1.8h-29.92v18.8h29.92c4.7,0,8.59-.6,11.67-1.8Z"/>
    <path class="cls-5" d="M1232.62,489.69c-2.87-2.04-7.6-3.05-14.18-3.05h-29.92v22.24h29.92c6.58,0,11.3-1.02,14.18-3.05,2.87-2.04,4.31-4.72,4.31-8.07s-1.44-6.03-4.31-8.07Z"/>
    <path class="cls-5" d="M1282.53,358.04h-145.42l-72.71,125.94,72.71,125.94h145.42l72.71-125.94-72.71-125.94ZM1252.74,510.06c-1.36,2.66-3.37,4.99-6.03,6.97-2.66,1.99-5.93,3.52-9.79,4.62-3.86,1.1-8.25,1.65-13.16,1.65h-57.49v-2.82c2.92,0,4.39-.94,4.39-2.82v-71.12c0-1.88-1.46-2.82-4.39-2.82v-2.82h49.03c4.8,0,9.45.39,13.94,1.17,4.49.78,8.46,2.04,11.9,3.76,3.45,1.72,6.21,3.97,8.3,6.74,2.09,2.77,3.13,6.19,3.13,10.26,0,4.91-1.52,8.69-4.54,11.36-3.03,2.66-6.63,4.73-10.81,6.19v.31c4.91,1.46,9.06,3.79,12.45,6.97,3.39,3.19,5.09,7.75,5.09,13.71,0,3.13-.68,6.03-2.04,8.69Z"/>
  </g>
  <path class="cls-5" d="M990.24,611.79h-145.42l-72.71,125.94,72.71,125.94h145.42l72.71-125.94-72.71-125.94ZM959.9,780.02h-2.82c0-1.57-.5-2.45-1.49-2.66-.99-.21-2.27-.31-3.84-.31h-73v-2.82c.73,0,1.38-.23,1.96-.7.57-.47.86-1.17.86-2.11v-71.12c0-.94-.29-1.64-.86-2.11-.58-.47-1.23-.71-1.96-.71v-2.82h71.43c2.19,0,3.73-.34,4.62-1.02.89-.68,1.33-1.59,1.33-2.74h2.82v20.68h-2.82c0-1.15-.45-2.01-1.33-2.59-.89-.57-2.43-.86-4.62-.86h-50.75v19.42h30.7c2.09,0,3.71-.29,4.86-.86,1.15-.57,1.72-2.06,1.72-4.46h2.82v24.44h-2.82c0-2.4-.58-3.94-1.72-4.62-1.15-.68-2.77-1.02-4.86-1.02h-30.7v21.62h52.32c1.57,0,2.84-.36,3.84-1.1.99-.73,1.49-1.72,1.49-2.98h2.82v21.46Z"/>
  <path class="cls-5" d="M1282.69,611.79h-145.42l-72.71,125.94,72.71,125.94h145.42l72.71-125.94-72.71-125.94ZM1258.62,697.47c-2.09,0-3.6.76-4.54,2.27-.94,1.51-1.62,2.74-2.04,3.68l-27.73,60.93c-.94,2.09-1.72,3.76-2.35,5.01-.63,1.25-.94,2.14-.94,2.66s.13.94.39,1.25c.26.31.6.63,1.02.94v2.82h-23.97v-2.82c.94-.42,1.41-1.15,1.41-2.19,0-.52-.39-1.59-1.17-3.21-.78-1.62-1.75-3.63-2.9-6.03l-28.2-61.25c-.52-1.15-1.25-1.98-2.19-2.51-.94-.52-2.3-1.04-4.07-1.57v-2.82h28.04v2.82c-.73,0-1.44.18-2.11.55-.68.37-1.02,1.07-1.02,2.11,0,1.15.44,2.61,1.33,4.39.89,1.78,1.96,3.97,3.21,6.58l20.05,43.08,19.58-42.45c1.25-2.71,2.43-5.14,3.52-7.28,1.1-2.14,1.65-3.63,1.65-4.46,0-1.67-1.46-2.51-4.39-2.51v-2.82h27.41v2.82Z"/>
  <g>
    <path class="cls-5" d="M647.5,713.28c-2.4-2.14-5.43-3.63-9.08-4.46-3.66-.83-7.94-1.25-12.84-1.25h-24.28v55.45h24.28c4.91,0,9.19-.42,12.84-1.25,3.65-.83,6.68-2.32,9.08-4.46,2.4-2.14,4.2-4.99,5.4-8.54,1.2-3.55,1.8-8.04,1.8-13.47s-.6-9.92-1.8-13.47c-1.2-3.55-3-6.4-5.4-8.54Z"/>
    <path class="cls-5" d="M697.5,611.23h-145.42l-72.71,125.94,72.71,125.94h145.42l72.71-125.94-72.71-125.94ZM669.43,753.53c-2.09,5.17-4.96,9.45-8.61,12.85-3.66,3.39-7.96,5.93-12.92,7.6-4.96,1.67-10.31,2.51-16.06,2.51h-52.01v-2.82c2.4,0,3.6-.94,3.6-2.82v-71.12c0-1.88-1.2-2.82-3.6-2.82v-2.82h52.01c5.74,0,11.1.84,16.06,2.51,4.96,1.67,9.27,4.2,12.92,7.6,3.65,3.39,6.52,7.68,8.61,12.85,2.09,5.17,3.13,11.25,3.13,18.25s-1.05,13.08-3.13,18.25Z"/>
  </g>
</svg>